<svg width="48" height="48" viewBox="0 0 48 48" fill="none" xmlns="http://www.w3.org/2000/svg">
<path d="M23.5441 4.02592C20.9446 3.99838 18.3662 4.49354 15.9619 5.48199C13.5576 6.47044 11.3765 7.93203 9.54806 9.77992C7.72618 11.6257 6.29625 13.8207 5.34422 16.2331C4.39218 18.6455 3.93769 21.2254 4.00806 23.8179C4.0152 26.4458 4.57437 29.0428 5.64932 31.4408C6.72427 33.8388 8.29102 35.9841 10.2481 37.7379C10.4344 37.8987 10.5831 38.0986 10.6836 38.3232C10.7842 38.5478 10.8342 38.7918 10.8301 39.0379V41.9379C10.8301 42.9119 11.2501 44.0019 12.4841 44.0019C12.7524 43.9907 13.0148 43.9197 13.2521 43.7939L16.9781 42.1459C17.3974 41.9829 17.8627 41.9829 18.2821 42.1459C28.6901 44.9759 40.3801 39.5259 43.2201 28.8059C44.0917 25.8362 44.2364 22.7004 43.6419 19.663C43.0473 16.6257 41.7311 13.7758 39.8041 11.3539C37.8768 8.92535 35.3954 6.99408 32.5681 5.72192C29.7378 4.44705 26.644 3.86428 23.5441 4.02592ZM32.5321 22.4019C27.4321 31.3819 27.4101 29.3619 21.0061 25.0939C20.2601 25.0939 19.8881 25.6499 17.3961 27.4139C14.9041 29.1779 14.4861 29.9199 13.7401 29.1299C12.9961 28.3419 15.3001 25.7199 18.3981 20.6619C21.0981 16.2079 24.8241 22.3799 27.1981 22.7499C28.706 21.9081 30.1126 20.8961 31.3901 19.7339C33.0221 18.4819 33.4861 17.9939 34.1381 18.5059C34.7901 19.0159 34.2321 19.7339 32.5321 22.4019Z" fill="white"/>
</svg>
